<svg xmlns="http://www.w3.org/2000/svg" viewBox="0 0 57 56" width="1em"
                            height="1em" fill="#FEF08A">
                            <path
                                d="M3.093 43.167v-27.957c0-0.969 1.113-1.516 1.88-0.923l23.073 17.829c0.42 0.325 1.007 0.325 1.427 0l23.073-17.829c0.767-0.593 1.88-0.046 1.88 0.923v27.957c0 2.577-2.089 4.667-4.667 4.667h-42c-2.577 0-4.667-2.089-4.667-4.667z">
                            </path>
                            <path
                                d="M29.473 27.449l22.249-17.192c0.881-0.68 0.399-2.090-0.713-2.090h-44.498c-1.113 0-1.594 1.409-0.713 2.090l22.249 17.192c0.42 0.325 1.007 0.325 1.427 0z">
                            </path>
                        </svg>