<svg xmlns="http://www.w3.org/2000/svg" viewBox="0 0 57 56" width="1em"
                            height="1em" fill="#FEF08A
">
                            <path
                                d="M18.373 38.467c2.416 2.412 4.967 4.59 7.652 6.534s5.37 3.485 8.055 4.624c2.685 1.139 5.227 1.709 7.627 1.709 1.628 0 3.146-0.293 4.556-0.88s2.685-1.508 3.826-2.764c0.671-0.737 1.2-1.533 1.586-2.387 0.386-0.838 0.579-1.684 0.579-2.538 0-0.637-0.126-1.24-0.378-1.809-0.252-0.586-0.68-1.089-1.284-1.508l-7.728-5.478c-0.587-0.402-1.133-0.704-1.636-0.905s-0.982-0.302-1.435-0.302c-0.571 0-1.124 0.159-1.661 0.477-0.537 0.302-1.091 0.737-1.661 1.307l-1.787 1.759c-0.252 0.268-0.571 0.402-0.956 0.402-0.201 0-0.394-0.034-0.579-0.101-0.168-0.067-0.31-0.126-0.428-0.176-0.789-0.419-1.795-1.139-3.020-2.161-1.225-1.039-2.458-2.178-3.7-3.418-1.225-1.24-2.358-2.471-3.398-3.694s-1.762-2.22-2.165-2.99c-0.067-0.134-0.134-0.285-0.201-0.452-0.050-0.184-0.076-0.369-0.076-0.553 0-0.369 0.126-0.679 0.378-0.93l1.787-1.834c0.554-0.57 0.99-1.123 1.309-1.659s0.478-1.089 0.478-1.659c0-0.452-0.109-0.93-0.327-1.432-0.201-0.503-0.512-1.047-0.931-1.634l-5.412-7.614c-0.436-0.603-0.956-1.039-1.561-1.307-0.604-0.285-1.242-0.427-1.913-0.427-1.728 0-3.348 0.729-4.858 2.186-1.225 1.173-2.123 2.471-2.693 3.895-0.554 1.407-0.831 2.915-0.831 4.523 0 2.412 0.562 4.951 1.686 7.615 1.124 2.647 2.651 5.302 4.581 7.966s4.103 5.202 6.519 7.615z">
                            </path>
                        </svg>