<svg xmlns="http://www.w3.org/2000/svg" viewBox="0 0 57 56" width="1em"
                            height="1em" fill="#FEF08A">
                            <path
                                d="M56.6 28c0 15.464-12.536 28-28 28s-28-12.536-28-28c0-15.464 12.536-28 28-28s28 12.536 28 28zM29.604 20.671c-2.723 1.133-8.166 3.477-16.329 7.034-1.326 0.527-2.020 1.043-2.083 1.547-0.107 0.852 0.96 1.188 2.413 1.645 0.198 0.062 0.402 0.126 0.613 0.195 1.43 0.465 3.353 1.008 4.353 1.030 0.907 0.020 1.919-0.354 3.036-1.122 7.627-5.148 11.563-7.75 11.811-7.806 0.174-0.040 0.416-0.089 0.58 0.056s0.148 0.421 0.13 0.495c-0.106 0.451-4.295 4.345-6.462 6.36-0.676 0.628-1.155 1.074-1.253 1.176-0.22 0.228-0.443 0.444-0.658 0.651-1.328 1.28-2.324 2.241 0.055 3.808 1.143 0.753 2.058 1.376 2.971 1.998 0.997 0.679 1.991 1.356 3.278 2.199 0.328 0.215 0.641 0.438 0.946 0.655 1.16 0.827 2.202 1.57 3.49 1.452 0.748-0.069 1.521-0.772 1.914-2.871 0.928-4.959 2.751-15.703 3.172-20.131 0.037-0.388-0.010-0.884-0.047-1.102s-0.115-0.528-0.399-0.758c-0.336-0.272-0.853-0.33-1.085-0.326-1.053 0.018-2.669 0.58-10.445 3.815z">
                            </path>
                        </svg>